<svg xmlns="http://www.w3.org/2000/svg" width="300" height="176"><path fill="#599d8a" stroke="#599d8a" stroke-width="1.51" d="M174,67L208,-17L128,-13Z"/><path fill="#5fa497" stroke="#5fa497" stroke-width="1.51" d="M208,-17L166,-86L128,-13Z"/><path fill="#3e7f4d" stroke="#3e7f4d" stroke-width="1.51" d="M49,121L117,152L174,67Z"/><path fill="#66aeaa" stroke="#66aeaa" stroke-width="1.51" d="M166,-86L77,-32L128,-13Z"/><path fill="#43845a" stroke="#43845a" stroke-width="1.51" d="M174,67L265,107L208,-17Z"/><path fill="#2b6d2f" stroke="#2b6d2f" stroke-width="1.51" d="M174,67L267,149L265,107Z"/><path fill="#4f916e" stroke="#4f916e" stroke-width="1.51" d="M49,121L174,67L128,-13Z"/><path fill="#65ada7" stroke="#65ada7" stroke-width="1.51" d="M77,-32L49,121L128,-13Z"/><path fill="#5ba093" stroke="#5ba093" stroke-width="1.51" d="M208,-17L262,-116L166,-86Z"/><path fill="#569b8d" stroke="#569b8d" stroke-width="1.51" d="M347,5L262,-116L208,-17Z"/><path fill="#498a6b" stroke="#498a6b" stroke-width="1.51" d="M265,107L347,5L208,-17Z"/><path fill="#2d7032" stroke="#2d7032" stroke-width="1.51" d="M117,152L267,149L174,67Z"/><path fill="#5fa597" stroke="#5fa597" stroke-width="1.51" d="M77,-32L2,106L49,121Z"/><path fill="#6bb5b9" stroke="#6bb5b9" stroke-width="1.51" d="M166,-86L64,-111L77,-32Z"/><path fill="#5fa598" stroke="#5fa598" stroke-width="1.51" d="M262,-116L64,-111L166,-86Z"/><path fill="#418359" stroke="#418359" stroke-width="1.51" d="M49,121L93,164L117,152Z"/><path fill="#236528" stroke="#236528" stroke-width="1.51" d="M117,152L263,265L267,149Z"/><path fill="#377849" stroke="#377849" stroke-width="1.51" d="M353,74L347,5L265,107Z"/><path fill="#448462" stroke="#448462" stroke-width="1.51" d="M49,121L52,239L93,164Z"/><path fill="#76c5db" stroke="#76c5db" stroke-width="1.51" d="M-44,-3L2,106L77,-32Z"/><path fill="#256729" stroke="#256729" stroke-width="1.51" d="M346,159L353,74L265,107Z"/><path fill="#80d6ff" stroke="#80d6ff" stroke-width="1.51" d="M-53,-83L-44,-3L77,-32Z"/><path fill="#226426" stroke="#226426" stroke-width="1.51" d="M267,149L346,159L265,107Z"/><path fill="#1b5e20" stroke="#1b5e20" stroke-width="1.51" d="M308,272L346,159L267,149Z"/><path fill="#54988a" stroke="#54988a" stroke-width="1.51" d="M347,5L358,-114L262,-116Z"/><path fill="#54988a" stroke="#54988a" stroke-width="1.51" d="M425,-26L358,-114L347,5Z"/><path fill="#7bccea" stroke="#7bccea" stroke-width="1.51" d="M64,-111L-53,-83L77,-32Z"/><path fill="#367746" stroke="#367746" stroke-width="1.51" d="M93,164L121,280L117,152Z"/><path fill="#4e917b" stroke="#4e917b" stroke-width="1.51" d="M-31,203L52,239L49,121Z"/><path fill="#579c8c" stroke="#579c8c" stroke-width="1.51" d="M-31,203L49,121L2,106Z"/><path fill="#3b7b4f" stroke="#3b7b4f" stroke-width="1.51" d="M433,119L425,-26L353,74Z"/><path fill="#4d8f77" stroke="#4d8f77" stroke-width="1.51" d="M353,74L425,-26L347,5Z"/><path fill="#226427" stroke="#226427" stroke-width="1.51" d="M346,159L390,157L353,74Z"/><path fill="#1b5e20" stroke="#1b5e20" stroke-width="1.51" d="M445,244L390,157L346,159Z"/><path fill="#27692b" stroke="#27692b" stroke-width="1.51" d="M121,280L263,265L117,152Z"/><path fill="#54988a" stroke="#54988a" stroke-width="1.51" d="M425,-26L397,-122L358,-114Z"/><path fill="#54988a" stroke="#54988a" stroke-width="1.51" d="M358,-114L397,-122L262,-116Z"/><path fill="#71bdca" stroke="#71bdca" stroke-width="1.51" d="M262,-116L-97,-111L64,-111Z"/><path fill="#3d7d53" stroke="#3d7d53" stroke-width="1.51" d="M52,239L121,280L93,164Z"/><path fill="#468667" stroke="#468667" stroke-width="1.51" d="M52,239L-3,250L121,280Z"/><path fill="#599e91" stroke="#599e91" stroke-width="1.51" d="M-122,108L-31,203L2,106Z"/><path fill="#67afad" stroke="#67afad" stroke-width="1.51" d="M-122,108L2,106L-44,-3Z"/><path fill="#246628" stroke="#246628" stroke-width="1.51" d="M390,157L433,119L353,74Z"/><path fill="#539687" stroke="#539687" stroke-width="1.51" d="M-31,203L-3,250L52,239Z"/><path fill="#1c5e21" stroke="#1c5e21" stroke-width="1.51" d="M390,157L445,244L433,119Z"/><path fill="#1d6022" stroke="#1d6022" stroke-width="1.51" d="M263,265L308,272L267,149Z"/><path fill="#216426" stroke="#216426" stroke-width="1.51" d="M121,280L308,272L263,265Z"/><path fill="#80d6ff" stroke="#80d6ff" stroke-width="1.51" d="M-53,-83L-135,25L-44,-3Z"/><path fill="#80d6ff" stroke="#80d6ff" stroke-width="1.51" d="M64,-111L-97,-111L-53,-83Z"/><path fill="#5da295" stroke="#5da295" stroke-width="1.51" d="M397,-122L-97,-111L262,-116Z"/><path fill="#80d6ff" stroke="#80d6ff" stroke-width="1.51" d="M-97,-111L-135,25L-53,-83Z"/><path fill="#72becc" stroke="#72becc" stroke-width="1.51" d="M-135,25L-122,108L-44,-3Z"/><path fill="#54988a" stroke="#54988a" stroke-width="1.51" d="M-31,203L-114,291L-3,250Z"/><path fill="#5ea497" stroke="#5ea497" stroke-width="1.51" d="M-135,25L-124,174L-122,108Z"/><path fill="#569a8d" stroke="#569a8d" stroke-width="1.51" d="M-122,108L-124,174L-31,203Z"/><path fill="#1b5e20" stroke="#1b5e20" stroke-width="1.51" d="M308,272L445,244L346,159Z"/><path fill="#256729" stroke="#256729" stroke-width="1.51" d="M433,119L445,244L425,-26Z"/><path fill="#54988a" stroke="#54988a" stroke-width="1.51" d="M-124,174L-114,291L-31,203Z"/><path fill="#54988a" stroke="#54988a" stroke-width="1.51" d="M-3,250L-114,291L121,280Z"/><path fill="#387849" stroke="#387849" stroke-width="1.51" d="M121,280L-114,291L308,272Z"/></svg>