<svg xmlns="http://www.w3.org/2000/svg" width="300" height="176"><path fill="#ffb876" stroke="#ffb876" stroke-width="1.51" d="M168,70L130,23L53,100Z"/><path fill="#fdada8" stroke="#fdada8" stroke-width="1.51" d="M130,23L31,9L53,100Z"/><path fill="#ffb663" stroke="#ffb663" stroke-width="1.51" d="M53,100L75,188L168,70Z"/><path fill="#fdb44b" stroke="#fdb44b" stroke-width="1.51" d="M75,188L134,207L168,70Z"/><path fill="#fdb937" stroke="#fdb937" stroke-width="1.51" d="M217,175L248,95L168,70Z"/><path fill="#fcaba3" stroke="#fcaba3" stroke-width="1.51" d="M270,-23L139,-73L130,23Z"/><path fill="#fdb734" stroke="#fdb734" stroke-width="1.51" d="M134,207L217,175L168,70Z"/><path fill="#f4a2d8" stroke="#f4a2d8" stroke-width="1.51" d="M130,23L37,-64L31,9Z"/><path fill="#feaf8b" stroke="#feaf8b" stroke-width="1.51" d="M270,-23L130,23L168,70Z"/><path fill="#f9a7c2" stroke="#f9a7c2" stroke-width="1.51" d="M139,-73L37,-64L130,23Z"/><path fill="#fca590" stroke="#fca590" stroke-width="1.51" d="M53,100L-63,192L75,188Z"/><path fill="#fcacae" stroke="#fcacae" stroke-width="1.51" d="M31,9L-57,115L53,100Z"/><path fill="#f9a8bd" stroke="#f9a8bd" stroke-width="1.51" d="M-109,72L-57,115L31,9Z"/><path fill="#ec9cf5" stroke="#ec9cf5" stroke-width="1.51" d="M37,-64L-19,-36L31,9Z"/><path fill="#feb16e" stroke="#feb16e" stroke-width="1.51" d="M248,95L270,-23L168,70Z"/><path fill="#fcb431" stroke="#fcb431" stroke-width="1.51" d="M134,207L159,270L217,175Z"/><path fill="#fdb14c" stroke="#fdb14c" stroke-width="1.51" d="M70,291L159,270L134,207Z"/><path fill="#fdad61" stroke="#fdad61" stroke-width="1.51" d="M70,291L134,207L75,188Z"/><path fill="#fca6a0" stroke="#fca6a0" stroke-width="1.51" d="M-57,115L-63,192L53,100Z"/><path fill="#fdae5c" stroke="#fdae5c" stroke-width="1.51" d="M363,62L311,18L248,95Z"/><path fill="#fda97d" stroke="#fda97d" stroke-width="1.51" d="M248,95L311,18L270,-23Z"/><path fill="#fca584" stroke="#fca584" stroke-width="1.51" d="M-34,297L70,291L75,188Z"/><path fill="#ee9df0" stroke="#ee9df0" stroke-width="1.51" d="M-19,-36L-109,72L31,9Z"/><path fill="#fba19c" stroke="#fba19c" stroke-width="1.51" d="M-57,115L-131,198L-63,192Z"/><path fill="#ee9def" stroke="#ee9def" stroke-width="1.51" d="M-19,-36L-141,11L-109,72Z"/><path fill="#e99afe" stroke="#e99afe" stroke-width="1.51" d="M37,-64L-15,-104L-19,-36Z"/><path fill="#f3a1df" stroke="#f3a1df" stroke-width="1.51" d="M139,-73L-15,-104L37,-64Z"/><path fill="#fba19c" stroke="#fba19c" stroke-width="1.51" d="M328,-88L267,-84L270,-23Z"/><path fill="#fca7a0" stroke="#fca7a0" stroke-width="1.51" d="M270,-23L267,-84L139,-73Z"/><path fill="#fbabb2" stroke="#fbabb2" stroke-width="1.51" d="M139,-73L267,-84L-15,-104Z"/><path fill="#fba09b" stroke="#fba09b" stroke-width="1.51" d="M311,18L328,-88L270,-23Z"/><path fill="#fcb230" stroke="#fcb230" stroke-width="1.51" d="M360,165L363,62L248,95Z"/><path fill="#fbaf2d" stroke="#fbaf2d" stroke-width="1.51" d="M360,165L248,95L217,175Z"/><path fill="#e99aff" stroke="#e99aff" stroke-width="1.51" d="M-132,-93L-141,11L-19,-36Z"/><path fill="#fca7a1" stroke="#fca7a1" stroke-width="1.51" d="M-109,72L-131,198L-57,115Z"/><path fill="#fba09b" stroke="#fba09b" stroke-width="1.51" d="M-63,192L-34,297L75,188Z"/><path fill="#fba09b" stroke="#fba09b" stroke-width="1.51" d="M-87,267L-34,297L-63,192Z"/><path fill="#fbb02d" stroke="#fbb02d" stroke-width="1.51" d="M159,270L266,290L217,175Z"/><path fill="#fcb432" stroke="#fcb432" stroke-width="1.51" d="M70,291L266,290L159,270Z"/><path fill="#fdae5b" stroke="#fdae5b" stroke-width="1.51" d="M-34,297L266,290L70,291Z"/><path fill="#f9a825" stroke="#f9a825" stroke-width="1.51" d="M329,255L360,165L217,175Z"/><path fill="#fdada5" stroke="#fdada5" stroke-width="1.51" d="M-141,11L-131,198L-109,72Z"/><path fill="#fba09b" stroke="#fba09b" stroke-width="1.51" d="M-131,198L-87,267L-63,192Z"/><path fill="#fba09b" stroke="#fba09b" stroke-width="1.51" d="M434,9L328,-88L311,18Z"/><path fill="#fca7a1" stroke="#fca7a1" stroke-width="1.51" d="M267,-84L401,-108L-15,-104Z"/><path fill="#faab28" stroke="#faab28" stroke-width="1.51" d="M266,290L329,255L217,175Z"/><path fill="#e99aff" stroke="#e99aff" stroke-width="1.51" d="M-15,-104L-132,-93L-19,-36Z"/><path fill="#fbaf2c" stroke="#fbaf2c" stroke-width="1.51" d="M452,148L405,81L360,165Z"/><path fill="#fcb330" stroke="#fcb330" stroke-width="1.51" d="M360,165L405,81L363,62Z"/><path fill="#fda77c" stroke="#fda77c" stroke-width="1.51" d="M363,62L434,9L311,18Z"/><path fill="#fdac65" stroke="#fdac65" stroke-width="1.51" d="M405,81L434,9L363,62Z"/><path fill="#fba09b" stroke="#fba09b" stroke-width="1.51" d="M434,9L401,-108L328,-88Z"/><path fill="#fba09b" stroke="#fba09b" stroke-width="1.51" d="M328,-88L401,-108L267,-84Z"/><path fill="#fcb340" stroke="#fcb340" stroke-width="1.51" d="M405,81L452,148L434,9Z"/><path fill="#f9a825" stroke="#f9a825" stroke-width="1.51" d="M429,266L452,148L360,165Z"/><path fill="#f9a825" stroke="#f9a825" stroke-width="1.51" d="M329,255L429,266L360,165Z"/><path fill="#f9a825" stroke="#f9a825" stroke-width="1.51" d="M266,290L429,266L329,255Z"/></svg>