<svg xmlns="http://www.w3.org/2000/svg" width="300" height="176"><path fill="#8797cf" stroke="#8797cf" stroke-width="1.51" d="M124,121L49,121L32,170Z"/><path fill="#6b8dd4" stroke="#6b8dd4" stroke-width="1.51" d="M32,170L148,197L124,121Z"/><path fill="#678bd3" stroke="#678bd3" stroke-width="1.51" d="M32,170L130,236L148,197Z"/><path fill="#8190cb" stroke="#8190cb" stroke-width="1.51" d="M32,170L53,277L130,236Z"/><path fill="#a49dc0" stroke="#a49dc0" stroke-width="1.51" d="M49,121L-20,165L32,170Z"/><path fill="#a29abd" stroke="#a29abd" stroke-width="1.51" d="M-28,235L53,277L32,170Z"/><path fill="#ad9db7" stroke="#ad9db7" stroke-width="1.51" d="M-20,165L-28,235L32,170Z"/><path fill="#b0a6c2" stroke="#b0a6c2" stroke-width="1.51" d="M49,121L-9,63L-20,165Z"/><path fill="#ad9db7" stroke="#ad9db7" stroke-width="1.51" d="M-20,165L-102,157L-28,235Z"/><path fill="#beaec0" stroke="#beaec0" stroke-width="1.51" d="M85,-19L-9,63L49,121Z"/><path fill="#6e98e0" stroke="#6e98e0" stroke-width="1.51" d="M124,121L148,18L49,121Z"/><path fill="#7a9adb" stroke="#7a9adb" stroke-width="1.51" d="M209,19L148,18L124,121Z"/><path fill="#2a86e2" stroke="#2a86e2" stroke-width="1.51" d="M148,197L259,101L124,121Z"/><path fill="#2681dd" stroke="#2681dd" stroke-width="1.51" d="M130,236L224,236L148,197Z"/><path fill="#4385db" stroke="#4385db" stroke-width="1.51" d="M53,277L224,236L130,236Z"/><path fill="#227dd9" stroke="#227dd9" stroke-width="1.51" d="M224,236L259,183L148,197Z"/><path fill="#b0a9c7" stroke="#b0a9c7" stroke-width="1.51" d="M148,18L85,-19L49,121Z"/><path fill="#247fdb" stroke="#247fdb" stroke-width="1.51" d="M259,183L259,101L148,197Z"/><path fill="#478ee5" stroke="#478ee5" stroke-width="1.51" d="M259,101L209,19L124,121Z"/><path fill="#c6b1bc" stroke="#c6b1bc" stroke-width="1.51" d="M148,18L133,-96L85,-19Z"/><path fill="#b2a5be" stroke="#b2a5be" stroke-width="1.51" d="M-9,63L-102,157L-20,165Z"/><path fill="#b5a9c1" stroke="#b5a9c1" stroke-width="1.51" d="M-9,63L-151,96L-102,157Z"/><path fill="#ebbfa6" stroke="#ebbfa6" stroke-width="1.51" d="M85,-19L-1,-7L-9,63Z"/><path fill="#ad9db7" stroke="#ad9db7" stroke-width="1.51" d="M-102,157L-111,242L-28,235Z"/><path fill="#ad9db7" stroke="#ad9db7" stroke-width="1.51" d="M-28,235L-111,242L53,277Z"/><path fill="#1f7ad6" stroke="#1f7ad6" stroke-width="1.51" d="M259,183L322,184L259,101Z"/><path fill="#7b92d1" stroke="#7b92d1" stroke-width="1.51" d="M259,101L308,25L209,19Z"/><path fill="#1976d2" stroke="#1976d2" stroke-width="1.51" d="M335,255L322,184L259,183Z"/><path fill="#ae9fb9" stroke="#ae9fb9" stroke-width="1.51" d="M-102,157L-151,96L-111,242Z"/><path fill="#d1b5b6" stroke="#d1b5b6" stroke-width="1.51" d="M-129,15L-151,96L-9,63Z"/><path fill="#237eda" stroke="#237eda" stroke-width="1.51" d="M322,184L315,65L259,101Z"/><path fill="#638bd5" stroke="#638bd5" stroke-width="1.51" d="M315,65L308,25L259,101Z"/><path fill="#b6aac3" stroke="#b6aac3" stroke-width="1.51" d="M209,19L133,-96L148,18Z"/><path fill="#edc1a4" stroke="#edc1a4" stroke-width="1.51" d="M-1,-7L-129,15L-9,63Z"/><path fill="#fbc79b" stroke="#fbc79b" stroke-width="1.51" d="M71,-125L-40,-72L-1,-7Z"/><path fill="#ffc998" stroke="#ffc998" stroke-width="1.51" d="M-1,-7L-40,-72L-129,15Z"/><path fill="#b4a7c0" stroke="#b4a7c0" stroke-width="1.51" d="M222,-103L133,-96L209,19Z"/><path fill="#2480dc" stroke="#2480dc" stroke-width="1.51" d="M322,184L407,72L315,65Z"/><path fill="#1c78d4" stroke="#1c78d4" stroke-width="1.51" d="M224,236L335,255L259,183Z"/><path fill="#237eda" stroke="#237eda" stroke-width="1.51" d="M53,277L335,255L224,236Z"/><path fill="#e8bea8" stroke="#e8bea8" stroke-width="1.51" d="M71,-125L-1,-7L85,-19Z"/><path fill="#d2b6b5" stroke="#d2b6b5" stroke-width="1.51" d="M133,-96L71,-125L85,-19Z"/><path fill="#b0a2bb" stroke="#b0a2bb" stroke-width="1.51" d="M331,-70L222,-103L209,19Z"/><path fill="#bbadc2" stroke="#bbadc2" stroke-width="1.51" d="M133,-96L222,-103L71,-125Z"/><path fill="#1976d2" stroke="#1976d2" stroke-width="1.51" d="M335,255L388,238L322,184Z"/><path fill="#718dd0" stroke="#718dd0" stroke-width="1.51" d="M315,65L407,72L308,25Z"/><path fill="#1976d2" stroke="#1976d2" stroke-width="1.51" d="M388,238L411,211L322,184Z"/><path fill="#ae9fb9" stroke="#ae9fb9" stroke-width="1.51" d="M308,25L331,-70L209,19Z"/><path fill="#1d79d5" stroke="#1d79d5" stroke-width="1.51" d="M411,211L407,72L322,184Z"/><path fill="#ad9db7" stroke="#ad9db7" stroke-width="1.51" d="M421,-17L331,-70L308,25Z"/><path fill="#ffc998" stroke="#ffc998" stroke-width="1.51" d="M-40,-72L-153,-85L-129,15Z"/><path fill="#f9c69d" stroke="#f9c69d" stroke-width="1.51" d="M-129,15L-153,-85L-151,96Z"/><path fill="#ffc998" stroke="#ffc998" stroke-width="1.51" d="M71,-125L-153,-85L-40,-72Z"/><path fill="#9295c4" stroke="#9295c4" stroke-width="1.51" d="M407,72L421,-17L308,25Z"/><path fill="#ad9db7" stroke="#ad9db7" stroke-width="1.51" d="M451,-87L421,-17L407,72Z"/><path fill="#ad9db7" stroke="#ad9db7" stroke-width="1.51" d="M421,-17L451,-87L331,-70Z"/><path fill="#ad9db7" stroke="#ad9db7" stroke-width="1.51" d="M331,-70L451,-87L222,-103Z"/><path fill="#b0a2bc" stroke="#b0a2bc" stroke-width="1.51" d="M222,-103L451,-87L71,-125Z"/><path fill="#608ad5" stroke="#608ad5" stroke-width="1.51" d="M411,211L451,-87L407,72Z"/></svg>