<svg xmlns="http://www.w3.org/2000/svg" width="300" height="176"><path fill="#9473aa" stroke="#9473aa" stroke-width="1.51" d="M142,69L130,23L78,57Z"/><path fill="#bba0a6" stroke="#bba0a6" stroke-width="1.51" d="M130,23L91,-18L78,57Z"/><path fill="#6345aa" stroke="#6345aa" stroke-width="1.51" d="M78,57L145,168L142,69Z"/><path fill="#c3aaa5" stroke="#c3aaa5" stroke-width="1.51" d="M130,23L135,-81L91,-18Z"/><path fill="#9b7aa8" stroke="#9b7aa8" stroke-width="1.51" d="M142,69L212,-23L130,23Z"/><path fill="#7d5ba6" stroke="#7d5ba6" stroke-width="1.51" d="M258,98L212,-23L142,69Z"/><path fill="#b294a6" stroke="#b294a6" stroke-width="1.51" d="M212,-23L135,-81L130,23Z"/><path fill="#cdb8a3" stroke="#cdb8a3" stroke-width="1.51" d="M135,-81L72,-81L91,-18Z"/><path fill="#d4c0a2" stroke="#d4c0a2" stroke-width="1.51" d="M-31,-29L-29,114L78,57Z"/><path fill="#452fa6" stroke="#452fa6" stroke-width="1.51" d="M145,168L258,98L142,69Z"/><path fill="#7351a3" stroke="#7351a3" stroke-width="1.51" d="M78,57L52,202L145,168Z"/><path fill="#e5d99e" stroke="#e5d99e" stroke-width="1.51" d="M-31,-29L78,57L91,-18Z"/><path fill="#9a79a4" stroke="#9a79a4" stroke-width="1.51" d="M-29,114L52,202L78,57Z"/><path fill="#e9de9d" stroke="#e9de9d" stroke-width="1.51" d="M72,-81L-31,-29L91,-18Z"/><path fill="#af91a3" stroke="#af91a3" stroke-width="1.51" d="M212,-23L247,-62L135,-81Z"/><path fill="#aa8c9e" stroke="#aa8c9e" stroke-width="1.51" d="M301,-62L247,-62L212,-23Z"/><path fill="#3d279d" stroke="#3d279d" stroke-width="1.51" d="M129,268L225,191L145,168Z"/><path fill="#3d279d" stroke="#3d279d" stroke-width="1.51" d="M145,168L225,191L258,98Z"/><path fill="#ab8da0" stroke="#ab8da0" stroke-width="1.51" d="M-131,120L-58,186L-29,114Z"/><path fill="#fefc97" stroke="#fefc97" stroke-width="1.51" d="M72,-81L-34,-88L-31,-29Z"/><path fill="#e3d59f" stroke="#e3d59f" stroke-width="1.51" d="M135,-81L-34,-88L72,-81Z"/><path fill="#3b259b" stroke="#3b259b" stroke-width="1.51" d="M225,191L307,120L258,98Z"/><path fill="#a8899b" stroke="#a8899b" stroke-width="1.51" d="M344,-5L301,-62L212,-23Z"/><path fill="#a8899c" stroke="#a8899c" stroke-width="1.51" d="M-29,114L-58,186L52,202Z"/><path fill="#e0d0a0" stroke="#e0d0a0" stroke-width="1.51" d="M-124,27L-29,114L-31,-29Z"/><path fill="#63429e" stroke="#63429e" stroke-width="1.51" d="M52,202L129,268L145,168Z"/><path fill="#73509e" stroke="#73509e" stroke-width="1.51" d="M77,270L129,268L52,202Z"/><path fill="#906d9c" stroke="#906d9c" stroke-width="1.51" d="M-7,299L77,270L52,202Z"/><path fill="#aa8b9e" stroke="#aa8b9e" stroke-width="1.51" d="M247,-62L401,-111L135,-81Z"/><path fill="#92709f" stroke="#92709f" stroke-width="1.51" d="M344,-5L212,-23L258,98Z"/><path fill="#fffe96" stroke="#fffe96" stroke-width="1.51" d="M-34,-88L-93,-63L-31,-29Z"/><path fill="#fffe96" stroke="#fffe96" stroke-width="1.51" d="M-93,-63L-124,27L-31,-29Z"/><path fill="#593a9f" stroke="#593a9f" stroke-width="1.51" d="M307,120L344,-5L258,98Z"/><path fill="#372198" stroke="#372198" stroke-width="1.51" d="M323,298L246,264L129,268Z"/><path fill="#3a249a" stroke="#3a249a" stroke-width="1.51" d="M129,268L246,264L225,191Z"/><path fill="#341d94" stroke="#341d94" stroke-width="1.51" d="M225,191L334,183L307,120Z"/><path fill="#b396a7" stroke="#b396a7" stroke-width="1.51" d="M-124,27L-131,120L-29,114Z"/><path fill="#341e94" stroke="#341e94" stroke-width="1.51" d="M246,264L334,183L225,191Z"/><path fill="#56379f" stroke="#56379f" stroke-width="1.51" d="M307,120L425,106L344,-5Z"/><path fill="#805c9e" stroke="#805c9e" stroke-width="1.51" d="M77,270L-7,299L129,268Z"/><path fill="#a7879a" stroke="#a7879a" stroke-width="1.51" d="M-58,186L-7,299L52,202Z"/><path fill="#a7879a" stroke="#a7879a" stroke-width="1.51" d="M-89,245L-7,299L-58,186Z"/><path fill="#a7879a" stroke="#a7879a" stroke-width="1.51" d="M-153,195L-89,245L-58,186Z"/><path fill="#a8899c" stroke="#a8899c" stroke-width="1.51" d="M-131,120L-153,195L-58,186Z"/><path fill="#af91a3" stroke="#af91a3" stroke-width="1.51" d="M-124,27L-153,195L-131,120Z"/><path fill="#351f95" stroke="#351f95" stroke-width="1.51" d="M449,163L425,106L334,183Z"/><path fill="#372198" stroke="#372198" stroke-width="1.51" d="M334,183L425,106L307,120Z"/><path fill="#311b92" stroke="#311b92" stroke-width="1.51" d="M246,264L323,298L334,183Z"/><path fill="#40299f" stroke="#40299f" stroke-width="1.51" d="M-7,299L323,298L129,268Z"/><path fill="#a7879a" stroke="#a7879a" stroke-width="1.51" d="M344,-5L401,-111L301,-62Z"/><path fill="#a7879a" stroke="#a7879a" stroke-width="1.51" d="M301,-62L401,-111L247,-62Z"/><path fill="#b194a6" stroke="#b194a6" stroke-width="1.51" d="M135,-81L401,-111L-34,-88Z"/><path fill="#a7879a" stroke="#a7879a" stroke-width="1.51" d="M445,27L401,-111L344,-5Z"/><path fill="#7c589e" stroke="#7c589e" stroke-width="1.51" d="M425,106L445,27L344,-5Z"/><path fill="#3d279d" stroke="#3d279d" stroke-width="1.51" d="M425,106L449,163L445,27Z"/><path fill="#311b92" stroke="#311b92" stroke-width="1.51" d="M403,261L449,163L334,183Z"/><path fill="#311b92" stroke="#311b92" stroke-width="1.51" d="M323,298L403,261L334,183Z"/></svg>