<svg xmlns="http://www.w3.org/2000/svg" width="300" height="176"><path fill="#fb602f" stroke="#fb602f" stroke-width="1.51" d="M146,75L139,149L229,85Z"/><path fill="#f35827" stroke="#f35827" stroke-width="1.51" d="M139,149L237,186L229,85Z"/><path fill="#f05524" stroke="#f05524" stroke-width="1.51" d="M139,149L167,270L237,186Z"/><path fill="#ef6a55" stroke="#ef6a55" stroke-width="1.51" d="M50,59L89,204L139,149Z"/><path fill="#f07060" stroke="#f07060" stroke-width="1.51" d="M229,85L222,-19L146,75Z"/><path fill="#e6716e" stroke="#e6716e" stroke-width="1.51" d="M330,24L222,-19L229,85Z"/><path fill="#e67e88" stroke="#e67e88" stroke-width="1.51" d="M222,-19L134,-16L146,75Z"/><path fill="#f96c4e" stroke="#f96c4e" stroke-width="1.51" d="M146,75L50,59L139,149Z"/><path fill="#e87f86" stroke="#e87f86" stroke-width="1.51" d="M134,-16L50,59L146,75Z"/><path fill="#ed5121" stroke="#ed5121" stroke-width="1.51" d="M237,186L324,173L229,85Z"/><path fill="#f05c35" stroke="#f05c35" stroke-width="1.51" d="M89,204L167,270L139,149Z"/><path fill="#e64a19" stroke="#e64a19" stroke-width="1.51" d="M237,186L341,298L324,173Z"/><path fill="#ee5221" stroke="#ee5221" stroke-width="1.51" d="M324,173L345,115L229,85Z"/><path fill="#ee5222" stroke="#ee5222" stroke-width="1.51" d="M167,270L216,275L237,186Z"/><path fill="#ef5d38" stroke="#ef5d38" stroke-width="1.51" d="M345,115L330,24L229,85Z"/><path fill="#ec6247" stroke="#ec6247" stroke-width="1.51" d="M89,204L58,245L167,270Z"/><path fill="#de7379" stroke="#de7379" stroke-width="1.51" d="M-60,146L58,245L89,204Z"/><path fill="#e27980" stroke="#e27980" stroke-width="1.51" d="M50,59L-60,146L89,204Z"/><path fill="#cb91c3" stroke="#cb91c3" stroke-width="1.51" d="M134,-16L44,-25L50,59Z"/><path fill="#cc91c0" stroke="#cc91c0" stroke-width="1.51" d="M92,-87L44,-25L134,-16Z"/><path fill="#bd97d6" stroke="#bd97d6" stroke-width="1.51" d="M44,-25L-4,13L50,59Z"/><path fill="#d68caf" stroke="#d68caf" stroke-width="1.51" d="M119,-106L92,-87L134,-16Z"/><path fill="#99a2fd" stroke="#99a2fd" stroke-width="1.51" d="M44,-25L-60,-82L-4,13Z"/><path fill="#e18498" stroke="#e18498" stroke-width="1.51" d="M119,-106L134,-16L222,-19Z"/><path fill="#ed5120" stroke="#ed5120" stroke-width="1.51" d="M399,211L401,63L345,115Z"/><path fill="#ee6041" stroke="#ee6041" stroke-width="1.51" d="M345,115L401,63L330,24Z"/><path fill="#d87b8e" stroke="#d87b8e" stroke-width="1.51" d="M268,-101L222,-19L330,24Z"/><path fill="#dd8094" stroke="#dd8094" stroke-width="1.51" d="M268,-101L119,-106L222,-19Z"/><path fill="#d6798c" stroke="#d6798c" stroke-width="1.51" d="M358,-69L268,-101L330,24Z"/><path fill="#c694ca" stroke="#c694ca" stroke-width="1.51" d="M-4,13L-43,59L50,59Z"/><path fill="#e74c1b" stroke="#e74c1b" stroke-width="1.51" d="M324,173L399,211L345,115Z"/><path fill="#e64a19" stroke="#e64a19" stroke-width="1.51" d="M341,298L399,211L324,173Z"/><path fill="#eb4f1f" stroke="#eb4f1f" stroke-width="1.51" d="M167,270L341,298L216,275Z"/><path fill="#e94d1c" stroke="#e94d1c" stroke-width="1.51" d="M216,275L341,298L237,186Z"/><path fill="#e18598" stroke="#e18598" stroke-width="1.51" d="M-43,59L-60,146L50,59Z"/><path fill="#d6798c" stroke="#d6798c" stroke-width="1.51" d="M390,-75L358,-69L443,2Z"/><path fill="#d6798c" stroke="#d6798c" stroke-width="1.51" d="M-60,146L-25,267L58,245Z"/><path fill="#e66b61" stroke="#e66b61" stroke-width="1.51" d="M58,245L-25,267L167,270Z"/><path fill="#f25625" stroke="#f25625" stroke-width="1.51" d="M167,270L-25,267L341,298Z"/><path fill="#d6798c" stroke="#d6798c" stroke-width="1.51" d="M443,2L358,-69L330,24Z"/><path fill="#d6798c" stroke="#d6798c" stroke-width="1.51" d="M358,-69L390,-75L268,-101Z"/><path fill="#e36e6b" stroke="#e36e6b" stroke-width="1.51" d="M401,63L443,2L330,24Z"/><path fill="#f15524" stroke="#f15524" stroke-width="1.51" d="M440,238L443,2L401,63Z"/><path fill="#e74b1a" stroke="#e74b1a" stroke-width="1.51" d="M399,211L440,238L401,63Z"/><path fill="#e64a19" stroke="#e64a19" stroke-width="1.51" d="M341,298L440,238L399,211Z"/><path fill="#d6798c" stroke="#d6798c" stroke-width="1.51" d="M-60,146L-117,152L-25,267Z"/><path fill="#db7e91" stroke="#db7e91" stroke-width="1.51" d="M-137,109L-117,152L-60,146Z"/><path fill="#df8296" stroke="#df8296" stroke-width="1.51" d="M-43,59L-137,109L-60,146Z"/><path fill="#af9ce7" stroke="#af9ce7" stroke-width="1.51" d="M-4,13L-144,-17L-43,59Z"/><path fill="#ab9deb" stroke="#ab9deb" stroke-width="1.51" d="M92,-87L-60,-82L44,-25Z"/><path fill="#ba98db" stroke="#ba98db" stroke-width="1.51" d="M119,-106L-60,-82L92,-87Z"/><path fill="#cb91c3" stroke="#cb91c3" stroke-width="1.51" d="M-144,-17L-137,109L-43,59Z"/><path fill="#99a2fd" stroke="#99a2fd" stroke-width="1.51" d="M-60,-82L-111,-69L-4,13Z"/><path fill="#99a2fd" stroke="#99a2fd" stroke-width="1.51" d="M-111,-69L-144,-17L-4,13Z"/><path fill="#d6798c" stroke="#d6798c" stroke-width="1.51" d="M-117,152L-144,266L-25,267Z"/><path fill="#e46d67" stroke="#e46d67" stroke-width="1.51" d="M-25,267L-144,266L341,298Z"/><path fill="#d6798c" stroke="#d6798c" stroke-width="1.51" d="M-137,109L-144,266L-117,152Z"/><path fill="#dd8094" stroke="#dd8094" stroke-width="1.51" d="M-144,-17L-144,266L-137,109Z"/></svg>