<svg xmlns="http://www.w3.org/2000/svg" width="300" height="176"><path fill="#c93c7e" stroke="#c93c7e" stroke-width="1.51" d="M121,92L88,90L117,179Z"/><path fill="#c84183" stroke="#c84183" stroke-width="1.51" d="M88,90L64,166L117,179Z"/><path fill="#d05297" stroke="#d05297" stroke-width="1.51" d="M88,90L-8,147L64,166Z"/><path fill="#bd2667" stroke="#bd2667" stroke-width="1.51" d="M117,179L226,171L121,92Z"/><path fill="#c33a7b" stroke="#c33a7b" stroke-width="1.51" d="M35,269L141,240L117,179Z"/><path fill="#c64486" stroke="#c64486" stroke-width="1.51" d="M35,269L117,179L64,166Z"/><path fill="#d861ad" stroke="#d861ad" stroke-width="1.51" d="M88,90L-45,90L-8,147Z"/><path fill="#d6569d" stroke="#d6569d" stroke-width="1.51" d="M121,92L45,24L88,90Z"/><path fill="#b92163" stroke="#b92163" stroke-width="1.51" d="M141,240L226,171L117,179Z"/><path fill="#d95faa" stroke="#d95faa" stroke-width="1.51" d="M121,92L171,-6L45,24Z"/><path fill="#bf2769" stroke="#bf2769" stroke-width="1.51" d="M226,171L237,79L121,92Z"/><path fill="#cc5499" stroke="#cc5499" stroke-width="1.51" d="M-8,147L35,269L64,166Z"/><path fill="#dd6ab8" stroke="#dd6ab8" stroke-width="1.51" d="M45,24L-45,90L88,90Z"/><path fill="#d05ea7" stroke="#d05ea7" stroke-width="1.51" d="M-8,147L-47,261L35,269Z"/><path fill="#d25197" stroke="#d25197" stroke-width="1.51" d="M220,21L171,-6L121,92Z"/><path fill="#ca3d7f" stroke="#ca3d7f" stroke-width="1.51" d="M237,79L220,21L121,92Z"/><path fill="#e484de" stroke="#e484de" stroke-width="1.51" d="M45,24L-39,3L-45,90Z"/><path fill="#e891f1" stroke="#e891f1" stroke-width="1.51" d="M75,-81L-39,3L45,24Z"/><path fill="#d05ea7" stroke="#d05ea7" stroke-width="1.51" d="M-94,172L-47,261L-8,147Z"/><path fill="#d764af" stroke="#d764af" stroke-width="1.51" d="M-116,110L-94,172L-45,90Z"/><path fill="#d663ae" stroke="#d663ae" stroke-width="1.51" d="M-45,90L-94,172L-8,147Z"/><path fill="#b92263" stroke="#b92263" stroke-width="1.51" d="M226,171L311,92L237,79Z"/><path fill="#b51e5f" stroke="#b51e5f" stroke-width="1.51" d="M141,240L238,287L226,171Z"/><path fill="#bc2869" stroke="#bc2869" stroke-width="1.51" d="M35,269L238,287L141,240Z"/><path fill="#c5397a" stroke="#c5397a" stroke-width="1.51" d="M237,79L311,92L220,21Z"/><path fill="#b21a5c" stroke="#b21a5c" stroke-width="1.51" d="M329,178L311,92L226,171Z"/><path fill="#e27acf" stroke="#e27acf" stroke-width="1.51" d="M171,-6L75,-81L45,24Z"/><path fill="#dd6bba" stroke="#dd6bba" stroke-width="1.51" d="M178,-73L75,-81L171,-6Z"/><path fill="#e074c6" stroke="#e074c6" stroke-width="1.51" d="M-109,2L-116,110L-45,90Z"/><path fill="#d764af" stroke="#d764af" stroke-width="1.51" d="M248,-106L178,-73L220,21Z"/><path fill="#d965b2" stroke="#d965b2" stroke-width="1.51" d="M220,21L178,-73L171,-6Z"/><path fill="#b0185a" stroke="#b0185a" stroke-width="1.51" d="M238,287L329,178L226,171Z"/><path fill="#e688e4" stroke="#e688e4" stroke-width="1.51" d="M-39,3L-109,2L-45,90Z"/><path fill="#e99aff" stroke="#e99aff" stroke-width="1.51" d="M-125,-103L-109,2L-39,3Z"/><path fill="#e997fa" stroke="#e997fa" stroke-width="1.51" d="M75,-81L-5,-114L-39,3Z"/><path fill="#e177ca" stroke="#e177ca" stroke-width="1.51" d="M248,-106L-5,-114L75,-81Z"/><path fill="#d05ea7" stroke="#d05ea7" stroke-width="1.51" d="M-94,172L-141,260L-47,261Z"/><path fill="#d05ea7" stroke="#d05ea7" stroke-width="1.51" d="M-47,261L-141,260L35,269Z"/><path fill="#ca4f93" stroke="#ca4f93" stroke-width="1.51" d="M35,269L-141,260L238,287Z"/><path fill="#d05ea7" stroke="#d05ea7" stroke-width="1.51" d="M-116,110L-141,260L-94,172Z"/><path fill="#dc68b5" stroke="#dc68b5" stroke-width="1.51" d="M-125,-103L-141,260L-116,110Z"/><path fill="#d360aa" stroke="#d360aa" stroke-width="1.51" d="M320,-66L248,-106L220,21Z"/><path fill="#db67b4" stroke="#db67b4" stroke-width="1.51" d="M178,-73L248,-106L75,-81Z"/><path fill="#c74688" stroke="#c74688" stroke-width="1.51" d="M311,92L362,6L220,21Z"/><path fill="#c33b7c" stroke="#c33b7c" stroke-width="1.51" d="M424,69L362,6L311,92Z"/><path fill="#d05ea7" stroke="#d05ea7" stroke-width="1.51" d="M362,6L320,-66L220,21Z"/><path fill="#b61e60" stroke="#b61e60" stroke-width="1.51" d="M329,178L424,69L311,92Z"/><path fill="#ad1457" stroke="#ad1457" stroke-width="1.51" d="M238,287L360,297L329,178Z"/><path fill="#ba2264" stroke="#ba2264" stroke-width="1.51" d="M-141,260L360,297L238,287Z"/><path fill="#e998fc" stroke="#e998fc" stroke-width="1.51" d="M-109,2L-125,-103L-116,110Z"/><path fill="#e99aff" stroke="#e99aff" stroke-width="1.51" d="M-5,-114L-125,-103L-39,3Z"/><path fill="#d05ea7" stroke="#d05ea7" stroke-width="1.51" d="M362,6L405,-21L320,-66Z"/><path fill="#b0185a" stroke="#b0185a" stroke-width="1.51" d="M438,207L424,69L329,178Z"/><path fill="#ad1457" stroke="#ad1457" stroke-width="1.51" d="M360,297L405,272L329,178Z"/><path fill="#cc5499" stroke="#cc5499" stroke-width="1.51" d="M424,69L405,-21L362,6Z"/><path fill="#d05ea7" stroke="#d05ea7" stroke-width="1.51" d="M320,-66L410,-84L248,-106Z"/><path fill="#ad1457" stroke="#ad1457" stroke-width="1.51" d="M405,272L438,207L329,178Z"/><path fill="#d05ea7" stroke="#d05ea7" stroke-width="1.51" d="M424,69L410,-84L405,-21Z"/><path fill="#d05ea7" stroke="#d05ea7" stroke-width="1.51" d="M405,-21L410,-84L320,-66Z"/><path fill="#c13676" stroke="#c13676" stroke-width="1.51" d="M438,207L410,-84L424,69Z"/></svg>