<svg xmlns="http://www.w3.org/2000/svg" width="300" height="176"><path fill="#b57bac" stroke="#b57bac" stroke-width="1.51" d="M169,54L216,7L148,16Z"/><path fill="#c697a7" stroke="#c697a7" stroke-width="1.51" d="M216,7L212,-85L148,16Z"/><path fill="#9b57ac" stroke="#9b57ac" stroke-width="1.51" d="M169,54L259,105L216,7Z"/><path fill="#c292a3" stroke="#c292a3" stroke-width="1.51" d="M216,7L305,15L212,-85Z"/><path fill="#a262a7" stroke="#a262a7" stroke-width="1.51" d="M259,105L305,15L216,7Z"/><path fill="#c898a9" stroke="#c898a9" stroke-width="1.51" d="M212,-85L165,-106L148,16Z"/><path fill="#b97fae" stroke="#b97fae" stroke-width="1.51" d="M148,16L28,66L169,54Z"/><path fill="#7d2fad" stroke="#7d2fad" stroke-width="1.51" d="M169,54L142,173L259,105Z"/><path fill="#e4c8a3" stroke="#e4c8a3" stroke-width="1.51" d="M59,-100L34,31L148,16Z"/><path fill="#964eb1" stroke="#964eb1" stroke-width="1.51" d="M28,66L142,173L169,54Z"/><path fill="#d0a4a9" stroke="#d0a4a9" stroke-width="1.51" d="M34,31L28,66L148,16Z"/><path fill="#8e48a5" stroke="#8e48a5" stroke-width="1.51" d="M259,105L350,69L305,15Z"/><path fill="#7122a1" stroke="#7122a1" stroke-width="1.51" d="M228,207L298,145L259,105Z"/><path fill="#7426a4" stroke="#7426a4" stroke-width="1.51" d="M298,145L350,69L259,105Z"/><path fill="#d4aba8" stroke="#d4aba8" stroke-width="1.51" d="M165,-106L59,-100L148,16Z"/><path fill="#be8f9f" stroke="#be8f9f" stroke-width="1.51" d="M305,15L344,-76L212,-85Z"/><path fill="#c293a3" stroke="#c293a3" stroke-width="1.51" d="M212,-85L344,-76L165,-106Z"/><path fill="#bd8e9e" stroke="#bd8e9e" stroke-width="1.51" d="M419,-62L344,-76L305,15Z"/><path fill="#7426a4" stroke="#7426a4" stroke-width="1.51" d="M142,173L228,207L259,105Z"/><path fill="#f7ec9b" stroke="#f7ec9b" stroke-width="1.51" d="M59,-100L-14,2L34,31Z"/><path fill="#e7cda2" stroke="#e7cda2" stroke-width="1.51" d="M34,31L-14,2L28,66Z"/><path fill="#c595a8" stroke="#c595a8" stroke-width="1.51" d="M-57,79L40,177L28,66Z"/><path fill="#a566a9" stroke="#a566a9" stroke-width="1.51" d="M28,66L40,177L142,173Z"/><path fill="#7426a4" stroke="#7426a4" stroke-width="1.51" d="M142,173L174,237L228,207Z"/><path fill="#7f34a6" stroke="#7f34a6" stroke-width="1.51" d="M91,293L174,237L142,173Z"/><path fill="#7223a2" stroke="#7223a2" stroke-width="1.51" d="M174,237L226,255L228,207Z"/><path fill="#6b1d9b" stroke="#6b1d9b" stroke-width="1.51" d="M228,207L314,250L298,145Z"/><path fill="#7123a1" stroke="#7123a1" stroke-width="1.51" d="M298,145L393,165L350,69Z"/><path fill="#e3c6a3" stroke="#e3c6a3" stroke-width="1.51" d="M-14,2L-57,79L28,66Z"/><path fill="#bd8e9e" stroke="#bd8e9e" stroke-width="1.51" d="M444,-13L419,-62L305,15Z"/><path fill="#ac74a1" stroke="#ac74a1" stroke-width="1.51" d="M350,69L444,-13L305,15Z"/><path fill="#6a1b9a" stroke="#6a1b9a" stroke-width="1.51" d="M314,250L393,165L298,145Z"/><path fill="#f3e59d" stroke="#f3e59d" stroke-width="1.51" d="M-14,2L-109,-17L-57,79Z"/><path fill="#fffe96" stroke="#fffe96" stroke-width="1.51" d="M59,-100L-55,-71L-14,2Z"/><path fill="#9e5fa3" stroke="#9e5fa3" stroke-width="1.51" d="M444,71L444,-13L350,69Z"/><path fill="#6e1f9e" stroke="#6e1f9e" stroke-width="1.51" d="M226,255L314,250L228,207Z"/><path fill="#7526a5" stroke="#7526a5" stroke-width="1.51" d="M393,165L444,71L350,69Z"/><path fill="#c091a1" stroke="#c091a1" stroke-width="1.51" d="M-57,79L-42,198L40,177Z"/><path fill="#9653a4" stroke="#9653a4" stroke-width="1.51" d="M40,177L91,293L142,173Z"/><path fill="#7627a6" stroke="#7627a6" stroke-width="1.51" d="M174,237L91,293L226,255Z"/><path fill="#7123a1" stroke="#7123a1" stroke-width="1.51" d="M226,255L91,293L314,250Z"/><path fill="#b37fa0" stroke="#b37fa0" stroke-width="1.51" d="M-62,271L91,293L40,177Z"/><path fill="#fffe96" stroke="#fffe96" stroke-width="1.51" d="M-55,-71L-109,-17L-14,2Z"/><path fill="#c091a1" stroke="#c091a1" stroke-width="1.51" d="M-57,79L-124,193L-42,198Z"/><path fill="#fffe96" stroke="#fffe96" stroke-width="1.51" d="M-55,-71L-111,-120L-109,-17Z"/><path fill="#fffe96" stroke="#fffe96" stroke-width="1.51" d="M59,-100L-111,-120L-55,-71Z"/><path fill="#f3e49d" stroke="#f3e49d" stroke-width="1.51" d="M165,-106L-111,-120L59,-100Z"/><path fill="#fffe96" stroke="#fffe96" stroke-width="1.51" d="M-111,-120L-145,57L-109,-17Z"/><path fill="#e9d1a1" stroke="#e9d1a1" stroke-width="1.51" d="M-109,-17L-145,57L-57,79Z"/><path fill="#6b1d9b" stroke="#6b1d9b" stroke-width="1.51" d="M393,165L434,257L444,71Z"/><path fill="#6a1b9a" stroke="#6a1b9a" stroke-width="1.51" d="M314,250L434,257L393,165Z"/><path fill="#6c1d9b" stroke="#6c1d9b" stroke-width="1.51" d="M91,293L434,257L314,250Z"/><path fill="#bd8e9e" stroke="#bd8e9e" stroke-width="1.51" d="M-124,193L-62,271L-42,198Z"/><path fill="#bd8e9e" stroke="#bd8e9e" stroke-width="1.51" d="M-42,198L-62,271L40,177Z"/><path fill="#c797a8" stroke="#c797a8" stroke-width="1.51" d="M-145,57L-124,193L-57,79Z"/><path fill="#be909f" stroke="#be909f" stroke-width="1.51" d="M-145,57L-141,245L-124,193Z"/><path fill="#bd8e9e" stroke="#bd8e9e" stroke-width="1.51" d="M-124,193L-141,245L-62,271Z"/></svg>