<svg xmlns="http://www.w3.org/2000/svg" width="300" height="176"><path fill="#fb8e27" stroke="#fb8e27" stroke-width="1.51" d="M182,106L227,170L209,115Z"/><path fill="#fb8d25" stroke="#fb8d25" stroke-width="1.51" d="M182,106L137,184L227,170Z"/><path fill="#fb9535" stroke="#fb9535" stroke-width="1.51" d="M182,106L86,98L137,184Z"/><path fill="#f98a23" stroke="#f98a23" stroke-width="1.51" d="M137,184L159,289L227,170Z"/><path fill="#f49547" stroke="#f49547" stroke-width="1.51" d="M86,98L61,211L137,184Z"/><path fill="#f78f34" stroke="#f78f34" stroke-width="1.51" d="M86,268L159,289L137,184Z"/><path fill="#fa9f47" stroke="#fa9f47" stroke-width="1.51" d="M182,106L144,16L86,98Z"/><path fill="#f49e53" stroke="#f49e53" stroke-width="1.51" d="M296,22L144,16L182,106Z"/><path fill="#f98820" stroke="#f98820" stroke-width="1.51" d="M159,289L208,297L227,170Z"/><path fill="#f39446" stroke="#f39446" stroke-width="1.51" d="M61,211L86,268L137,184Z"/><path fill="#fa8a23" stroke="#fa8a23" stroke-width="1.51" d="M227,170L345,100L209,115Z"/><path fill="#fb9432" stroke="#fb9432" stroke-width="1.51" d="M209,115L296,22L182,106Z"/><path fill="#f68018" stroke="#f68018" stroke-width="1.51" d="M306,294L339,163L227,170Z"/><path fill="#f7841c" stroke="#f7841c" stroke-width="1.51" d="M339,163L345,100L227,170Z"/><path fill="#f99030" stroke="#f99030" stroke-width="1.51" d="M345,100L296,22L209,115Z"/><path fill="#f7841c" stroke="#f7841c" stroke-width="1.51" d="M208,297L306,294L227,170Z"/><path fill="#eb9e63" stroke="#eb9e63" stroke-width="1.51" d="M86,98L-37,192L61,211Z"/><path fill="#e9ad7a" stroke="#e9ad7a" stroke-width="1.51" d="M144,16L69,-13L86,98Z"/><path fill="#e4b085" stroke="#e4b085" stroke-width="1.51" d="M181,-69L69,-13L144,16Z"/><path fill="#e6a676" stroke="#e6a676" stroke-width="1.51" d="M296,22L269,-35L144,16Z"/><path fill="#e5a172" stroke="#e5a172" stroke-width="1.51" d="M422,0L269,-35L296,22Z"/><path fill="#eb9c61" stroke="#eb9c61" stroke-width="1.51" d="M61,211L-36,281L86,268Z"/><path fill="#e7a877" stroke="#e7a877" stroke-width="1.51" d="M-38,86L-37,192L86,98Z"/><path fill="#e7aa79" stroke="#e7aa79" stroke-width="1.51" d="M269,-35L181,-69L144,16Z"/><path fill="#e5b083" stroke="#e5b083" stroke-width="1.51" d="M69,-13L-38,86L86,98Z"/><path fill="#f57f17" stroke="#f57f17" stroke-width="1.51" d="M418,248L407,193L339,163Z"/><path fill="#f8861f" stroke="#f8861f" stroke-width="1.51" d="M339,163L421,119L345,100Z"/><path fill="#f09852" stroke="#f09852" stroke-width="1.51" d="M345,100L422,0L296,22Z"/><path fill="#f6821a" stroke="#f6821a" stroke-width="1.51" d="M407,193L421,119L339,163Z"/><path fill="#e5a172" stroke="#e5a172" stroke-width="1.51" d="M-37,192L-36,281L61,211Z"/><path fill="#f09852" stroke="#f09852" stroke-width="1.51" d="M86,268L-36,281L159,289Z"/><path fill="#f5923d" stroke="#f5923d" stroke-width="1.51" d="M159,289L-36,281L208,297Z"/><path fill="#f57f17" stroke="#f57f17" stroke-width="1.51" d="M407,193L418,248L421,119Z"/><path fill="#f57f17" stroke="#f57f17" stroke-width="1.51" d="M306,294L418,248L339,163Z"/><path fill="#ccbdb2" stroke="#ccbdb2" stroke-width="1.51" d="M69,-13L-36,-14L-38,86Z"/><path fill="#c3c1bf" stroke="#c3c1bf" stroke-width="1.51" d="M-21,-84L-36,-14L69,-13Z"/><path fill="#dfb390" stroke="#dfb390" stroke-width="1.51" d="M181,-69L77,-114L69,-13Z"/><path fill="#e6a777" stroke="#e6a777" stroke-width="1.51" d="M269,-35L248,-116L181,-69Z"/><path fill="#e5a374" stroke="#e5a374" stroke-width="1.51" d="M314,-121L248,-116L269,-35Z"/><path fill="#f79035" stroke="#f79035" stroke-width="1.51" d="M421,119L422,0L345,100Z"/><path fill="#e7ac7c" stroke="#e7ac7c" stroke-width="1.51" d="M248,-116L77,-114L181,-69Z"/><path fill="#e7a878" stroke="#e7a878" stroke-width="1.51" d="M248,-116L314,-121L77,-114Z"/><path fill="#e5a172" stroke="#e5a172" stroke-width="1.51" d="M422,0L314,-121L269,-35Z"/><path fill="#cebcae" stroke="#cebcae" stroke-width="1.51" d="M77,-114L-21,-84L69,-13Z"/><path fill="#ddb595" stroke="#ddb595" stroke-width="1.51" d="M-152,85L-38,86L-138,0Z"/><path fill="#e7ab7b" stroke="#e7ab7b" stroke-width="1.51" d="M-152,85L-149,148L-38,86Z"/><path fill="#e6a676" stroke="#e6a676" stroke-width="1.51" d="M-38,86L-149,148L-37,192Z"/><path fill="#e5a172" stroke="#e5a172" stroke-width="1.51" d="M-37,192L-147,289L-36,281Z"/><path fill="#cebcae" stroke="#cebcae" stroke-width="1.51" d="M-138,0L-38,86L-36,-14Z"/><path fill="#e4a273" stroke="#e4a273" stroke-width="1.51" d="M-152,85L-147,289L-149,148Z"/><path fill="#e5a172" stroke="#e5a172" stroke-width="1.51" d="M-149,148L-147,289L-37,192Z"/><path fill="#e6a06e" stroke="#e6a06e" stroke-width="1.51" d="M-36,281L-147,289L208,297Z"/><path fill="#c1c1c1" stroke="#c1c1c1" stroke-width="1.51" d="M-148,-101L-138,0L-36,-14Z"/><path fill="#e5a172" stroke="#e5a172" stroke-width="1.51" d="M422,0L448,-80L314,-121Z"/><path fill="#e89e68" stroke="#e89e68" stroke-width="1.51" d="M421,119L448,-80L422,0Z"/><path fill="#fa8b24" stroke="#fa8b24" stroke-width="1.51" d="M418,248L448,-80L421,119Z"/><path fill="#c1c1c1" stroke="#c1c1c1" stroke-width="1.51" d="M-21,-84L-148,-101L-36,-14Z"/><path fill="#c1c1c1" stroke="#c1c1c1" stroke-width="1.51" d="M-138,0L-148,-101L-152,85Z"/><path fill="#c1c1c1" stroke="#c1c1c1" stroke-width="1.51" d="M77,-114L-148,-101L-21,-84Z"/></svg>