<svg xmlns="http://www.w3.org/2000/svg" width="300" height="176"><path fill="#a4943b" stroke="#a4943b" stroke-width="1.51" d="M161,70L64,104L118,152Z"/><path fill="#bba253" stroke="#bba253" stroke-width="1.51" d="M161,70L59,20L64,104Z"/><path fill="#cbac63" stroke="#cbac63" stroke-width="1.51" d="M161,70L133,-24L59,20Z"/><path fill="#ac9645" stroke="#ac9645" stroke-width="1.51" d="M64,104L27,210L118,152Z"/><path fill="#bb9d54" stroke="#bb9d54" stroke-width="1.51" d="M-27,171L27,210L64,104Z"/><path fill="#c9a961" stroke="#c9a961" stroke-width="1.51" d="M161,70L224,-32L133,-24Z"/><path fill="#918627" stroke="#918627" stroke-width="1.51" d="M233,201L270,86L161,70Z"/><path fill="#928728" stroke="#928728" stroke-width="1.51" d="M233,201L161,70L118,152Z"/><path fill="#8e8323" stroke="#8e8323" stroke-width="1.51" d="M134,253L233,201L118,152Z"/><path fill="#a99241" stroke="#a99241" stroke-width="1.51" d="M27,210L68,246L118,152Z"/><path fill="#9d8c35" stroke="#9d8c35" stroke-width="1.51" d="M68,246L134,253L118,152Z"/><path fill="#ba9c53" stroke="#ba9c53" stroke-width="1.51" d="M27,210L-42,256L68,246Z"/><path fill="#c7a760" stroke="#c7a760" stroke-width="1.51" d="M-48,96L-27,171L64,104Z"/><path fill="#cdad65" stroke="#cdad65" stroke-width="1.51" d="M59,20L-48,96L64,104Z"/><path fill="#e5ba7d" stroke="#e5ba7d" stroke-width="1.51" d="M133,-24L40,-64L59,20Z"/><path fill="#efc087" stroke="#efc087" stroke-width="1.51" d="M59,20L-26,-31L-48,96Z"/><path fill="#ccac64" stroke="#ccac64" stroke-width="1.51" d="M224,-32L127,-66L133,-24Z"/><path fill="#b09948" stroke="#b09948" stroke-width="1.51" d="M270,86L224,-32L161,70Z"/><path fill="#deb676" stroke="#deb676" stroke-width="1.51" d="M127,-66L40,-64L133,-24Z"/><path fill="#9f8d37" stroke="#9f8d37" stroke-width="1.51" d="M351,106L313,-15L270,86Z"/><path fill="#8b8021" stroke="#8b8021" stroke-width="1.51" d="M134,253L216,256L233,201Z"/><path fill="#f7c48f" stroke="#f7c48f" stroke-width="1.51" d="M40,-64L-26,-31L59,20Z"/><path fill="#c09f59" stroke="#c09f59" stroke-width="1.51" d="M-27,171L-42,256L27,210Z"/><path fill="#ae9547" stroke="#ae9547" stroke-width="1.51" d="M68,246L-42,256L134,253Z"/><path fill="#94872a" stroke="#94872a" stroke-width="1.51" d="M-108,269L297,262L216,256Z"/><path fill="#c09f59" stroke="#c09f59" stroke-width="1.51" d="M-97,197L-42,256L-27,171Z"/><path fill="#ffc998" stroke="#ffc998" stroke-width="1.51" d="M-138,-101L-36,-68L40,-64Z"/><path fill="#ffc998" stroke="#ffc998" stroke-width="1.51" d="M40,-64L-36,-68L-26,-31Z"/><path fill="#dbb573" stroke="#dbb573" stroke-width="1.51" d="M-142,19L-125,75L-48,96Z"/><path fill="#bb9e54" stroke="#bb9e54" stroke-width="1.51" d="M270,86L313,-15L224,-32Z"/><path fill="#c9a962" stroke="#c9a962" stroke-width="1.51" d="M224,-32L232,-98L127,-66Z"/><path fill="#897e1f" stroke="#897e1f" stroke-width="1.51" d="M351,106L270,86L356,183Z"/><path fill="#c3a35c" stroke="#c3a35c" stroke-width="1.51" d="M327,-68L232,-98L224,-32Z"/><path fill="#d3b06b" stroke="#d3b06b" stroke-width="1.51" d="M127,-66L232,-98L40,-64Z"/><path fill="#867b1c" stroke="#867b1c" stroke-width="1.51" d="M356,183L270,86L233,201Z"/><path fill="#c8a860" stroke="#c8a860" stroke-width="1.51" d="M-125,75L-97,197L-48,96Z"/><path fill="#c3a25c" stroke="#c3a25c" stroke-width="1.51" d="M-48,96L-97,197L-27,171Z"/><path fill="#efc087" stroke="#efc087" stroke-width="1.51" d="M-142,19L-48,96L-26,-31Z"/><path fill="#867b1c" stroke="#867b1c" stroke-width="1.51" d="M216,256L297,262L233,201Z"/><path fill="#a5913e" stroke="#a5913e" stroke-width="1.51" d="M-108,269L216,256L134,253Z"/><path fill="#827718" stroke="#827718" stroke-width="1.51" d="M297,262L356,183L233,201Z"/><path fill="#c1a05a" stroke="#c1a05a" stroke-width="1.51" d="M313,-15L327,-68L224,-32Z"/><path fill="#c09f59" stroke="#c09f59" stroke-width="1.51" d="M390,-3L327,-68L313,-15Z"/><path fill="#ffc998" stroke="#ffc998" stroke-width="1.51" d="M-36,-68L-142,19L-26,-31Z"/><path fill="#c09f59" stroke="#c09f59" stroke-width="1.51" d="M-125,75L-108,269L-97,197Z"/><path fill="#af9648" stroke="#af9648" stroke-width="1.51" d="M351,106L390,-3L313,-15Z"/><path fill="#887d1e" stroke="#887d1e" stroke-width="1.51" d="M356,183L389,107L351,106Z"/><path fill="#c09f59" stroke="#c09f59" stroke-width="1.51" d="M-42,256L-108,269L134,253Z"/><path fill="#c09f59" stroke="#c09f59" stroke-width="1.51" d="M-97,197L-108,269L-42,256Z"/><path fill="#c8a861" stroke="#c8a861" stroke-width="1.51" d="M-142,19L-108,269L-125,75Z"/><path fill="#998930" stroke="#998930" stroke-width="1.51" d="M389,107L390,-3L351,106Z"/><path fill="#f0c088" stroke="#f0c088" stroke-width="1.51" d="M232,-98L-138,-101L40,-64Z"/><path fill="#ffc998" stroke="#ffc998" stroke-width="1.51" d="M-36,-68L-138,-101L-142,19Z"/><path fill="#8d8223" stroke="#8d8223" stroke-width="1.51" d="M389,107L443,190L390,-3Z"/><path fill="#84791a" stroke="#84791a" stroke-width="1.51" d="M356,183L443,190L389,107Z"/><path fill="#827717" stroke="#827717" stroke-width="1.51" d="M297,262L399,262L356,183Z"/><path fill="#8b8020" stroke="#8b8020" stroke-width="1.51" d="M-108,269L399,262L297,262Z"/><path fill="#827717" stroke="#827717" stroke-width="1.51" d="M399,262L443,190L356,183Z"/><path fill="#cbaa63" stroke="#cbaa63" stroke-width="1.51" d="M232,-98L434,-105L-138,-101Z"/><path fill="#c09f59" stroke="#c09f59" stroke-width="1.51" d="M327,-68L434,-105L232,-98Z"/><path fill="#c09f59" stroke="#c09f59" stroke-width="1.51" d="M390,-3L434,-105L327,-68Z"/><path fill="#b09649" stroke="#b09649" stroke-width="1.51" d="M443,190L434,-105L390,-3Z"/></svg>